<svg width="594" height="113" viewBox="0 0 594 113" fill="none" xmlns="http://www.w3.org/2000/svg">
<path d="M41.2257 86.647L12.9904 26.3529H42.6962L71.5198 86.647H41.2257Z" fill="#082DF7"/>
<path d="M88.8727 56.3529H59.4609L72.9904 26.3529H102.99L88.8727 56.3529Z" fill="#082DF7"/>
<path d="M411.138 81.3244C408.787 81.3244 406.617 80.8496 404.627 79.9C402.683 78.9053 401.01 77.5713 399.608 75.8983C398.206 74.18 397.166 72.2357 396.488 70.0653L396.013 80.5105H394.928V32.0826H396.284V57.4496C397.279 53.8322 399.065 50.9383 401.643 48.7679C404.265 46.5974 407.431 45.5122 411.138 45.5122C414.439 45.5122 417.265 46.3035 419.617 47.8861C422.013 49.4235 423.845 51.5487 425.111 54.2618C426.377 56.9296 427.01 60.0044 427.01 63.4861C427.01 66.9226 426.377 69.9974 425.111 72.7105C423.845 75.3783 422.036 77.4809 419.685 79.0183C417.333 80.5557 414.484 81.3244 411.138 81.3244ZM411.138 79.9679C413.942 79.9679 416.406 79.2896 418.531 77.9331C420.702 76.5766 422.398 74.6548 423.618 72.1679C424.884 69.6809 425.518 66.7644 425.518 63.4183C425.518 60.027 424.884 57.0879 423.618 54.6009C422.398 52.1139 420.702 50.2148 418.531 48.9035C416.406 47.547 413.942 46.8687 411.138 46.8687C408.335 46.8687 405.848 47.5922 403.678 49.0392C401.552 50.4409 399.879 52.3853 398.658 54.8722C397.438 57.3592 396.827 60.2079 396.827 63.4183C396.827 66.5383 397.438 69.3644 398.658 71.8966C399.879 74.3835 401.552 76.3505 403.678 77.7974C405.848 79.2444 408.335 79.9679 411.138 79.9679Z" fill="white"/>
<path d="M374.533 81.3243C372.182 81.3243 370.056 80.8721 368.157 79.9678C366.303 79.0182 364.834 77.5487 363.749 75.5591C362.663 73.5243 362.121 70.8565 362.121 67.5556V46.326H363.477V67.2165C363.477 71.6026 364.427 74.8356 366.326 76.9156C368.225 78.9504 371.006 79.9678 374.669 79.9678C377.065 79.9678 379.168 79.4026 380.976 78.2721C382.785 77.0965 384.209 75.4008 385.249 73.1852C386.289 70.9243 386.809 68.166 386.809 64.9104V46.326H388.166V80.5104H387.081L386.606 72.7782C385.43 75.853 383.757 78.046 381.587 79.3574C379.416 80.6687 377.065 81.3243 374.533 81.3243Z" fill="white"/>
<path d="M354.651 80.5104V31.6757H356.007V80.5104H354.651Z" fill="white"/>
<path d="M331.214 81.3243C326.828 81.3243 322.984 80.307 319.683 78.2722C316.382 76.1922 313.828 73.3209 312.019 69.6583C310.256 65.9504 309.374 61.6548 309.374 56.7713C309.374 51.8426 310.256 47.547 312.019 43.8843C313.828 40.2217 316.382 37.373 319.683 35.3383C322.984 33.2583 326.828 32.2183 331.214 32.2183C336.233 32.2183 340.257 33.3487 343.287 35.6096C346.316 37.8704 348.351 41.0357 349.391 45.1052H347.899C346.949 41.6687 345.141 38.8878 342.473 36.7626C339.805 34.6374 336.052 33.5748 331.214 33.5748C327.235 33.5748 323.708 34.5017 320.633 36.3557C317.558 38.1643 315.162 40.8096 313.443 44.2913C311.725 47.7278 310.866 51.8878 310.866 56.7713C310.866 61.6096 311.725 65.7696 313.443 69.2513C315.162 72.6878 317.558 75.333 320.633 77.187C323.708 79.0409 327.235 79.9678 331.214 79.9678C335.962 79.9678 339.715 78.8826 342.473 76.7122C345.231 74.4965 347.04 71.6704 347.899 68.2339H349.391C348.351 72.3939 346.316 75.627 343.287 77.933C340.257 80.1939 336.233 81.3243 331.214 81.3243Z" fill="white"/>
<path d="M289.63 81.3244C286.374 81.3244 283.48 80.5783 280.948 79.0861C278.416 77.594 276.426 75.5139 274.979 72.8461C273.577 70.1783 272.876 67.0809 272.876 63.554C272.876 59.9366 273.577 56.7939 274.979 54.1261C276.426 51.4131 278.416 49.3105 280.948 47.8183C283.48 46.2809 286.419 45.5122 289.765 45.5122C293.111 45.5122 295.983 46.2583 298.379 47.7505C300.776 49.2426 302.63 51.2322 303.941 53.7192C305.252 56.1609 305.908 58.8739 305.908 61.8583C305.908 62.3105 305.885 62.8079 305.84 63.3505C305.84 63.8479 305.817 64.4131 305.772 65.0461H277.828V60.2305H299.125C298.99 57.3818 298.04 55.1661 296.276 53.5835C294.513 51.9557 292.32 51.1418 289.697 51.1418C287.843 51.1418 286.148 51.5713 284.61 52.4305C283.073 53.2444 281.83 54.4653 280.88 56.0931C279.976 57.6757 279.523 59.6879 279.523 62.1296V64.0287C279.523 66.5609 279.976 68.7087 280.88 70.4722C281.83 72.1905 283.073 73.5018 284.61 74.4061C286.148 75.2653 287.821 75.6948 289.63 75.6948C291.8 75.6948 293.586 75.22 294.988 74.2705C296.39 73.3209 297.43 72.0322 298.108 70.4044H304.89C304.303 72.4844 303.308 74.3609 301.906 76.034C300.504 77.6618 298.763 78.9505 296.683 79.9C294.649 80.8496 292.297 81.3244 289.63 81.3244Z" fill="white"/>
<path d="M251.973 80.5105V46.3261H258.078L258.688 52.7696C259.457 51.2322 260.452 49.9435 261.672 48.9035C262.893 47.8183 264.318 46.9818 265.945 46.3939C267.618 45.8061 269.518 45.5122 271.643 45.5122V52.7018H269.201C267.799 52.7018 266.465 52.8826 265.199 53.2444C263.933 53.5609 262.803 54.1261 261.808 54.94C260.858 55.7539 260.112 56.8618 259.57 58.2635C259.027 59.6653 258.756 61.4061 258.756 63.4861V80.5105H251.973Z" fill="white"/>
<path d="M229.683 81.3244C226.473 81.3244 223.579 80.5783 221.002 79.0861C218.47 77.594 216.457 75.5139 214.965 72.8461C213.518 70.1331 212.795 67.0131 212.795 63.4861C212.795 59.8687 213.541 56.7261 215.033 54.0583C216.525 51.3453 218.56 49.2426 221.137 47.7505C223.715 46.2583 226.609 45.5122 229.819 45.5122C233.075 45.5122 235.969 46.2583 238.501 47.7505C241.033 49.2426 243.023 51.3226 244.47 53.9905C245.962 56.6583 246.708 59.8009 246.708 63.4183C246.708 67.0357 245.962 70.1783 244.47 72.8461C243.023 75.5139 241.01 77.594 238.433 79.0861C235.856 80.5783 232.939 81.3244 229.683 81.3244ZM229.683 75.4913C231.537 75.4913 233.21 75.0392 234.703 74.1348C236.24 73.2305 237.461 71.8966 238.365 70.1331C239.315 68.3244 239.79 66.0861 239.79 63.4183C239.79 60.7505 239.337 58.5348 238.433 56.7713C237.529 54.9626 236.308 53.6061 234.77 52.7018C233.278 51.7974 231.628 51.3453 229.819 51.3453C228.01 51.3453 226.337 51.7974 224.8 52.7018C223.263 53.6061 222.019 54.9626 221.07 56.7713C220.165 58.5348 219.713 60.7505 219.713 63.4183C219.713 66.0861 220.165 68.3244 221.07 70.1331C222.019 71.8966 223.24 73.2305 224.732 74.1348C226.27 75.0392 227.92 75.4913 229.683 75.4913Z" fill="white"/>
<path d="M200.701 80.5104V31.6757H207.484V80.5104H200.701Z" fill="white"/>
<path d="M176.986 81.3244C174.183 81.3244 171.854 80.8496 170 79.9C168.146 78.9505 166.767 77.6844 165.863 76.1018C164.958 74.474 164.506 72.7331 164.506 70.8792C164.506 68.6183 165.094 66.6966 166.27 65.1139C167.445 63.4861 169.118 62.2426 171.289 61.3835C173.459 60.5244 176.059 60.0948 179.089 60.0948H187.974C187.974 58.1053 187.68 56.4548 187.092 55.1435C186.504 53.8322 185.623 52.86 184.447 52.227C183.317 51.5487 181.87 51.2096 180.106 51.2096C178.071 51.2096 176.331 51.707 174.884 52.7018C173.437 53.6513 172.532 55.0757 172.171 56.9748H165.388C165.659 54.5783 166.473 52.5435 167.83 50.8705C169.231 49.1522 171.018 47.8409 173.188 46.9366C175.358 45.987 177.664 45.5122 180.106 45.5122C183.317 45.5122 186.007 46.0774 188.178 47.2079C190.348 48.3383 191.976 49.9435 193.061 52.0235C194.191 54.0583 194.757 56.5 194.757 59.3487V80.5105H188.856L188.313 74.7453C187.816 75.6496 187.228 76.5087 186.55 77.3226C185.871 78.1366 185.058 78.8374 184.108 79.4253C183.204 80.0131 182.141 80.4653 180.92 80.7818C179.744 81.1435 178.433 81.3244 176.986 81.3244ZM178.275 75.8305C179.722 75.8305 181.033 75.5366 182.209 74.9487C183.384 74.3609 184.379 73.5696 185.193 72.5748C186.052 71.5348 186.685 70.3818 187.092 69.1157C187.544 67.8044 187.793 66.4705 187.838 65.1139V64.9105H179.767C177.823 64.9105 176.24 65.1592 175.019 65.6566C173.844 66.1087 172.984 66.7418 172.442 67.5557C171.899 68.3696 171.628 69.3192 171.628 70.4044C171.628 71.5348 171.877 72.507 172.374 73.3209C172.917 74.0896 173.685 74.7 174.68 75.1522C175.675 75.6044 176.873 75.8305 178.275 75.8305Z" fill="white"/>
<path d="M140.625 80.5105L122.99 33.0322H130.316L144.695 73.4566L159.209 33.0322H166.399L148.764 80.5105H140.625Z" fill="white"/>
<rect width="145" height="58" transform="translate(449 28)" fill="#082DF7"/>
<path d="M465.82 67V49.1421H459.838V46.7726H474.72V49.1421H468.709V67H465.82ZM477.646 67V46.7726H484.494C486.093 46.7726 487.403 47.0423 488.424 47.5817C489.445 48.1211 490.196 48.8435 490.678 49.7489C491.179 50.635 491.429 51.6464 491.429 52.783C491.429 53.8618 491.179 54.8635 490.678 55.7882C490.196 56.6936 489.436 57.4257 488.395 57.9843C487.355 58.5237 486.026 58.7934 484.408 58.7934H480.535V67H477.646ZM488.28 67L483.916 58.0132H487.095L491.632 67H488.28ZM480.535 56.5973H484.292C485.718 56.5973 486.767 56.2506 487.442 55.5571C488.116 54.8443 488.453 53.9389 488.453 52.8408C488.453 51.7235 488.126 50.8373 487.471 50.1823C486.816 49.5274 485.756 49.1999 484.292 49.1999H480.535V56.5973ZM493.87 67L501.296 46.7726H504.446L511.872 67H508.78L502.856 50.2401L496.904 67H493.87ZM497.221 62.0009L498.031 59.6892H507.537L508.347 62.0009H497.221ZM522.468 67.3468C520.484 67.3468 518.769 66.9133 517.325 66.0464C515.899 65.1603 514.791 63.937 514.001 62.3766C513.231 60.7969 512.846 58.9668 512.846 56.8863C512.846 54.825 513.231 53.0045 514.001 51.4249C514.791 49.8452 515.899 48.6219 517.325 47.755C518.769 46.8689 520.484 46.4258 522.468 46.4258C524.838 46.4258 526.754 46.9941 528.218 48.1307C529.702 49.2673 530.646 50.8662 531.05 52.9275H527.872C527.583 51.7331 526.986 50.7795 526.08 50.0668C525.194 49.354 523.99 48.9976 522.468 48.9976C521.1 48.9976 519.916 49.3154 518.914 49.9512C517.912 50.5869 517.142 51.4923 516.602 52.6674C516.063 53.8425 515.793 55.2488 515.793 56.8863C515.793 58.5237 516.063 59.9397 516.602 61.134C517.142 62.3092 517.912 63.2146 518.914 63.8503C519.916 64.4668 521.1 64.775 522.468 64.775C523.99 64.775 525.194 64.4379 526.08 63.7636C526.986 63.0701 527.583 62.1358 527.872 60.9607H531.05C530.646 62.9641 529.702 64.5342 528.218 65.6708C526.754 66.7881 524.838 67.3468 522.468 67.3468ZM534.507 67V46.7726H537.397V55.5571L545.488 46.7726H549.1L541.587 54.8058L549.244 67H545.719L539.535 57.0597L537.397 59.3425V67H534.507ZM552.031 67V46.7726H564.803V49.1421H554.921V55.6148H563.937V57.9266H554.921V64.6305H564.803V67H552.031ZM568.539 67V46.7726H575.388C576.987 46.7726 578.297 47.0423 579.318 47.5817C580.339 48.1211 581.09 48.8435 581.572 49.7489C582.073 50.635 582.323 51.6464 582.323 52.783C582.323 53.8618 582.073 54.8635 581.572 55.7882C581.09 56.6936 580.329 57.4257 579.289 57.9843C578.249 58.5237 576.919 58.7934 575.301 58.7934H571.429V67H568.539ZM579.173 67L574.81 58.0132H577.989L582.525 67H579.173ZM571.429 56.5973H575.186C576.611 56.5973 577.661 56.2506 578.335 55.5571C579.01 54.8443 579.347 53.9389 579.347 52.8408C579.347 51.7235 579.019 50.8373 578.364 50.1823C577.709 49.5274 576.65 49.1999 575.186 49.1999H571.429V56.5973Z" fill="white"/>
</svg>
